<svg viewBox="0 0 1024 1024" xmlns="http://www.w3.org/2000/svg">
  <path
    d="M29.938602 452.072897h215.557938c16.566027 0 29.938602 13.372576 29.938603 29.938603V994.061398c0 16.566027-13.372576 29.938602-29.938603 29.938602H29.938602c-16.566027 0-29.938602-13.372576-29.938602-29.938602V482.0115c0-16.566027 13.372576-29.938602 29.938602-29.938603zM394.191599 320.343046h233.5211c16.566027 0 29.938602 13.372576 29.938602 29.938603V994.061398c0 16.566027-13.372576 29.938602-29.938602 29.938602H394.191599c-16.566027 0-29.938602-13.372576-29.938602-29.938602V350.281649c0-16.566027 13.372576-29.938602 29.938602-29.938603zM779.401618 0h212.564077c16.566027 0 29.938602 13.372576 29.938603 29.938602V994.061398c0 16.566027-13.372576 29.938602-29.938603 29.938602H779.401618c-16.566027 0-29.938602-13.372576-29.938603-29.938602V29.938602c0-16.566027 13.372576-29.938602 29.938603-29.938602z">
  </path>
</svg>