<svg viewBox="0 0 1024 1024" xmlns="http://www.w3.org/2000/svg">
  <path
    d="M768 64H192c-70.4 0-128 57.6-128 128v576c0 70.4 57.6 128 128 128h576c70.4 0 128-57.6 128-128V192c0-70.4-57.6-128-128-128zM640 672c0 17.92-14.08 32-32 32H288c-17.92 0-32-14.08-32-32s14.08-32 32-32h320c17.92 0 32 14.08 32 32zM256 480c0-17.92 14.08-32 32-32h256c17.92 0 32 14.08 32 32s-14.08 32-32 32H288c-17.92 0-32-14.08-32-32z m416-160H288c-17.92 0-32-14.08-32-32s14.08-32 32-32h384c17.92 0 32 14.08 32 32s-14.08 32-32 32z">
  </path>
</svg>