<?xml version="1.0" encoding="UTF-8"?>
<svg width="24px" height="24px" viewBox="0 0 24 24" version="1.1" xmlns="http://www.w3.org/2000/svg"
  xmlns:xlink="http://www.w3.org/1999/xlink">
  <title>切片</title>
  <g id="首页优化" stroke="none" stroke-width="1" fill="none" fill-rule="evenodd">
    <g id="切图2" transform="translate(-306.000000, -99.000000)" stroke="currentColor">
      <g id="编组-17" transform="translate(276.000000, 69.000000)">
        <g id="编组-16" transform="translate(30.000000, 30.000000)">
          <path
            d="M13.1971665,5.88306425 L17.6916039,9.21725672 C18.2001482,9.59451962 18.5,10.1903176 18.5,10.8235195 L18.5,16 C18.5,17.1045695 17.6045695,18 16.5,18 L14,17.9996635 L14,14.5 C14,13.4456382 13.1841222,12.5818349 12.1492623,12.5054857 L12,12.5 C10.8954305,12.5 10,13.3954305 10,14.5 L10,17.9996635 L7.5,18 C6.3954305,18 5.5,17.1045695 5.5,16 L5.5,10.8247761 C5.5,10.1908683 5.80051717,9.59449269 6.31000677,9.21731968 L10.8155694,5.88187061 C11.5231681,5.35803824 12.4900932,5.35852286 13.1971665,5.88306425 Z"
            id="矩形-2"></path>
        </g>
      </g>
    </g>
  </g>
</svg>