<?xml version="1.0" encoding="UTF-8"?>
<svg width="24px" height="24px" viewBox="0 0 24 24" version="1.1" xmlns="http://www.w3.org/2000/svg"
  xmlns:xlink="http://www.w3.org/1999/xlink">
  <title>切片</title>
  <g id="首页优化" stroke="none" stroke-width="1" fill="none" fill-rule="evenodd">
    <g id="切图2" transform="translate(-549.000000, -1647.000000)" fill="currentColor">
      <g id="编组-4" transform="translate(529.000000, 69.000000)">
        <g id="编组-6" transform="translate(0.000000, 1558.000000)">
          <g id="编组-3" transform="translate(20.000000, 20.000000)">
            <g id="编组-27" transform="translate(4.000000, 4.000000)">
              <path
                d="M13,1 C13.5522847,1 14,1.44771525 14,2 L14,14 C14,14.5522847 13.5522847,15 13,15 L3,15 C2.44771525,15 2,14.5522847 2,14 L2,2 C2,1.44771525 2.44771525,1 3,1 L13,1 Z M10,8.5 L5,8.5 C4.72385763,8.5 4.5,8.72385763 4.5,9 C4.5,9.27614237 4.72385763,9.5 5,9.5 L10,9.5 C10.2761424,9.5 10.5,9.27614237 10.5,9 C10.5,8.72385763 10.2761424,8.5 10,8.5 Z M7,5 L5,5 C4.72385763,5 4.5,5.22385763 4.5,5.5 C4.5,5.77614237 4.72385763,6 5,6 L7,6 C7.27614237,6 7.5,5.77614237 7.5,5.5 C7.5,5.22385763 7.27614237,5 7,5 Z"
                id="矩形-8"></path>
            </g>
          </g>
        </g>
      </g>
    </g>
  </g>
</svg>